<svg id="visual" viewBox="0 0 900 600" width="900" height="600" xmlns="http://www.w3.org/2000/svg"
    xmlns:xlink="http://www.w3.org/1999/xlink" version="1.1">
    <rect x="0" y="0" width="900" height="600" fill="#ffd090"></rect>
    <path
        d="M0 419L21.5 422.7C43 426.3 86 433.7 128.8 435C171.7 436.3 214.3 431.7 257.2 428.2C300 424.7 343 422.3 385.8 422C428.7 421.7 471.3 423.3 514.2 424C557 424.7 600 424.3 642.8 415.5C685.7 406.7 728.3 389.3 771.2 378.8C814 368.3 857 364.7 878.5 362.8L900 361L900 601L878.5 601C857 601 814 601 771.2 601C728.3 601 685.7 601 642.8 601C600 601 557 601 514.2 601C471.3 601 428.7 601 385.8 601C343 601 300 601 257.2 601C214.3 601 171.7 601 128.8 601C86 601 43 601 21.5 601L0 601Z"
        fill="#081e70"></path>
    <path
        d="M0 463L21.5 460.3C43 457.7 86 452.3 128.8 450.2C171.7 448 214.3 449 257.2 450.3C300 451.7 343 453.3 385.8 458C428.7 462.7 471.3 470.3 514.2 461.2C557 452 600 426 642.8 419.3C685.7 412.7 728.3 425.3 771.2 428C814 430.7 857 423.3 878.5 419.7L900 416L900 601L878.5 601C857 601 814 601 771.2 601C728.3 601 685.7 601 642.8 601C600 601 557 601 514.2 601C471.3 601 428.7 601 385.8 601C343 601 300 601 257.2 601C214.3 601 171.7 601 128.8 601C86 601 43 601 21.5 601L0 601Z"
        fill="#1a36a5"></path>
    <path
        d="M0 508L21.5 502.5C43 497 86 486 128.8 480.2C171.7 474.3 214.3 473.7 257.2 473.5C300 473.3 343 473.7 385.8 468C428.7 462.3 471.3 450.7 514.2 446.2C557 441.7 600 444.3 642.8 449.8C685.7 455.3 728.3 463.7 771.2 462.7C814 461.7 857 451.3 878.5 446.2L900 441L900 601L878.5 601C857 601 814 601 771.2 601C728.3 601 685.7 601 642.8 601C600 601 557 601 514.2 601C471.3 601 428.7 601 385.8 601C343 601 300 601 257.2 601C214.3 601 171.7 601 128.8 601C86 601 43 601 21.5 601L0 601Z"
        fill="#2446c7"></path>
    <path
        d="M0 537L21.5 535.7C43 534.3 86 531.7 128.8 525.7C171.7 519.7 214.3 510.3 257.2 511.8C300 513.3 343 525.7 385.8 525.5C428.7 525.3 471.3 512.7 514.2 506.5C557 500.3 600 500.7 642.8 498.5C685.7 496.3 728.3 491.7 771.2 498C814 504.3 857 521.7 878.5 530.3L900 539L900 601L878.5 601C857 601 814 601 771.2 601C728.3 601 685.7 601 642.8 601C600 601 557 601 514.2 601C471.3 601 428.7 601 385.8 601C343 601 300 601 257.2 601C214.3 601 171.7 601 128.8 601C86 601 43 601 21.5 601L0 601Z"
        fill="#1a36a5"></path>
    <path
        d="M0 542L21.5 546.8C43 551.7 86 561.3 128.8 562.2C171.7 563 214.3 555 257.2 551C300 547 343 547 385.8 547.7C428.7 548.3 471.3 549.7 514.2 551.3C557 553 600 555 642.8 558.7C685.7 562.3 728.3 567.7 771.2 570.5C814 573.3 857 573.7 878.5 573.8L900 574L900 601L878.5 601C857 601 814 601 771.2 601C728.3 601 685.7 601 642.8 601C600 601 557 601 514.2 601C471.3 601 428.7 601 385.8 601C343 601 300 601 257.2 601C214.3 601 171.7 601 128.8 601C86 601 43 601 21.5 601L0 601Z"
        fill="#081e70"></path>
</svg>